<?xml version="1.0" encoding="UTF-8"?>
<svg xmlns="http://www.w3.org/2000/svg" xmlns:xlink="http://www.w3.org/1999/xlink" width="100pt" height="68pt" viewBox="0 0 100 68" version="1.1">
<g id="surface1">
<rect x="0" y="0" width="100" height="68" style="fill:rgb(100%,100%,100%);fill-opacity:1;stroke:none;"/>
<path style="fill:none;stroke-width:1.5;stroke-linecap:butt;stroke-linejoin:miter;stroke:rgb(0%,0%,0%);stroke-opacity:1;stroke-miterlimit:4;" d="M 75.490625 109.443934 C 75.490625 110.431985 75.490625 111.443015 76.510156 112.431066 C 76.510156 112.431066 77.507031 114.430147 77.507031 116.429228 C 77.507031 117.440257 77.121875 117.509191 77.507031 118.428309 C 78.050781 119.738051 78.979687 120.266544 79.500781 122.426471 C 79.727344 123.414522 79.500781 124.448529 79.500781 126.44761 C 79.500781 128.446691 80.497656 129.434743 80.497656 130.445772 C 80.497656 131.433824 80.497656 132.444853 80.497656 133.432904 C 80.497656 135.431985 80.044531 137.5 80.497656 139.430147 C 81.01875 141.613051 81.403906 141.452206 81.494531 142.440257 C 81.992969 147.518382 84.507812 158.432904 84.507812 159.443934 C 84.507812 160.431985 84.28125 161.465993 84.507812 162.431066 C 85.00625 164.613971 85.504688 164.430147 85.504688 165.441176 C 85.504688 165.441176 85.504688 165.441176 85.504688 166.429228 C 85.504688 167.440257 85.504688 169.439338 85.504688 170.42739 C 85.504688 171.438419 85.504688 172.426471 85.504688 173.4375 C 85.504688 174.448529 85.504688 175.436581 85.504688 176.44761 C 85.504688 177.435662 85.504688 177.435662 85.504688 177.435662 C 85.504688 178.446691 85.504688 179.434743 85.504688 180.445772 C 85.504688 181.433824 86.501562 182.444853 86.501562 182.444853 C 86.501562 183.432904 86.501562 183.432904 86.501562 184.443934 C 86.501562 184.443934 86.501562 185.431985 86.501562 187.431066 C 86.501562 188.442096 86.501562 189.430147 86.501562 191.429228 C 86.501562 192.440257 86.501562 192.440257 86.501562 193.428309 C 86.501562 193.428309 87.498437 194.439338 87.498437 196.438419 C 87.498437 198.4375 87.498437 199.448529 87.498437 200.436581 C 87.498437 200.436581 88.495312 202.435662 88.495312 204.434743 C 88.495312 206.433824 88.495312 207.444853 88.495312 207.444853 L 88.495312 208.432904 " transform="matrix(0.172414,0,0,0.17,0,0)"/>
<path style="fill:none;stroke-width:1.5;stroke-linecap:butt;stroke-linejoin:miter;stroke:rgb(0%,0%,0%);stroke-opacity:1;stroke-miterlimit:4;" d="M 122.502344 109.443934 C 122.502344 110.431985 120.236719 111.236213 119.489063 112.431066 C 117.835156 115.119485 116.498437 116.429228 115.501562 117.440257 C 115.501562 117.440257 114.504688 118.428309 113.507812 119.439338 C 112.510937 120.42739 110.675781 121.530331 109.497656 123.4375 C 108.976562 124.287684 108.795312 124.88511 107.503906 125.436581 C 106.575 125.827206 106.303125 126.125919 104.490625 127.435662 C 103.357812 128.262868 103.425781 128.056066 102.496875 128.446691 C 101.182812 128.975184 101.024219 130.58364 100.503125 131.433824 C 99.325 133.340993 98.509375 133.432904 98.509375 133.432904 C 97.489844 133.432904 96.878125 134.512868 96.492969 135.431985 C 95.949219 136.741728 94.499219 137.431066 94.499219 137.431066 C 94.499219 137.431066 93.502344 138.442096 93.502344 139.430147 C 93.502344 139.430147 92.505469 139.430147 92.505469 140.441176 C 92.505469 140.441176 92.505469 141.429228 91.508594 141.429228 C 91.508594 141.429228 91.032812 142.141544 90.489063 143.428309 C 90.126562 144.370404 89.039062 144.140625 88.495312 145.42739 C 88.110156 146.369485 87.498437 147.426471 87.498437 147.426471 C 86.501562 149.448529 86.207031 148.736213 85.504688 149.448529 C 84.802344 150.137868 84.507812 150.436581 84.507812 150.436581 C 83.510937 151.44761 83.510937 151.44761 83.510937 151.44761 C 83.510937 152.435662 82.491406 152.435662 82.491406 152.435662 C 82.491406 152.435662 82.491406 153.446691 82.491406 153.446691 C 81.494531 153.446691 81.494531 154.434743 81.494531 154.434743 C 81.494531 154.434743 82.400781 154.940257 86.501562 155.445772 C 90.466406 155.928309 92.550781 154.986213 94.499219 155.445772 C 96.674219 155.951287 97.489844 156.433824 97.489844 156.433824 C 98.509375 156.433824 98.509375 156.433824 99.50625 156.433824 C 99.50625 156.433824 100.503125 156.433824 102.496875 156.433824 C 105.510156 156.433824 108.500781 157.444853 110.494531 157.444853 C 111.491406 157.444853 113.507812 158.432904 114.504688 159.443934 C 115.501562 160.431985 116.679688 160.133272 118.492188 161.443015 C 119.647656 162.270221 120.508594 163.442096 120.508594 163.442096 C 121.505469 164.430147 121.505469 164.430147 122.502344 165.441176 C 124.496094 167.440257 125.492969 167.440257 126.489844 168.428309 C 127.509375 169.439338 128.574219 170.059743 129.503125 170.42739 C 130.817187 170.97886 130.409375 171.530331 131.496875 172.426471 C 134.283594 174.724265 135.507031 174.448529 136.503906 175.436581 C 137.500781 176.44761 137.20625 177.780331 139.494531 179.434743 C 141.307031 180.744485 141.125781 181.502757 141.510937 182.444853 C 142.032031 183.754596 143.119531 183.524816 143.504687 184.443934 C 144.048438 185.753676 145.498437 187.431066 145.498437 187.431066 C 146.495312 188.442096 146.495312 189.430147 147.492188 190.441176 C 148.489062 191.429228 148.489062 191.429228 148.489062 192.440257 C 148.489062 192.440257 148.489062 193.428309 148.489062 193.428309 C 148.489062 193.428309 149.508594 193.428309 149.508594 194.439338 C 149.508594 194.439338 149.508594 194.439338 149.508594 195.42739 C 149.508594 195.42739 150.505469 196.438419 150.505469 196.438419 L 150.505469 197.426471 " transform="matrix(0.172414,0,0,0.17,0,0)"/>
<path style="fill:none;stroke-width:1.5;stroke-linecap:butt;stroke-linejoin:miter;stroke:rgb(0%,0%,0%);stroke-opacity:1;stroke-miterlimit:4;" d="M 191.490625 104.434743 C 191.490625 104.434743 191.490625 103.446691 191.490625 103.446691 C 190.49375 103.446691 190.49375 102.527574 189.496875 102.435662 C 184.421875 101.930147 181.499219 100.436581 177.489062 100.436581 C 175.495312 100.436581 173.796094 99.977022 172.504687 99.448529 C 171.575781 99.057904 170.669531 99.931066 168.494531 100.436581 C 167.520312 100.66636 166.455469 101.148897 165.503906 101.44761 C 162.060156 102.481618 161.3125 104.136029 159.5 105.445772 C 158.344531 106.272978 159.160156 107.743566 157.50625 110.431985 C 156.758594 111.649816 156.509375 112.431066 156.509375 113.442096 C 156.509375 115.441176 156.509375 115.441176 156.509375 116.429228 C 156.509375 116.429228 157.50625 117.440257 157.50625 117.440257 C 158.503125 118.428309 158.185937 118.887868 159.5 119.439338 C 161.357812 120.19761 162.58125 120.059743 163.510156 120.42739 C 164.801562 120.97886 165.798438 121.392463 167.497656 122.426471 C 169.400781 123.621324 170.578906 124.21875 173.501563 125.436581 C 175.563281 126.286765 177.489062 126.44761 177.489062 126.44761 C 178.508594 126.44761 178.576562 127.045037 179.505469 127.435662 C 180.796875 127.987132 181.317969 129.917279 183.492969 130.445772 C 184.467187 130.675551 186.574219 131.066176 187.503125 131.433824 C 188.817187 131.985294 189.496875 133.432904 191.490625 134.443934 C 193.507031 135.431985 194.096094 135.018382 195.500781 136.443015 C 196.905469 137.844669 196.950781 138.120404 197.494531 139.430147 C 197.879687 140.372243 197.789062 140.73989 198.491406 141.429228 C 199.216406 142.141544 199.510937 142.440257 199.510937 142.440257 C 199.510937 144.439338 199.510937 145.42739 200.507812 147.426471 C 201.504687 149.448529 202.501563 151.44761 202.501563 152.435662 C 202.501563 154.434743 203.498437 156.433824 203.498437 158.432904 C 203.498437 160.431985 203.498437 162.431066 203.498437 163.442096 C 203.498437 164.430147 204.200781 164.72886 203.498437 165.441176 C 202.796094 166.153493 202.796094 167.899816 201.504687 168.428309 C 200.575781 168.818934 199.420312 170.059743 198.491406 170.42739 C 197.2 170.97886 196.814844 172.886029 195.500781 173.4375 C 194.571875 173.828125 193.960156 175.390625 190.49375 176.44761 C 188.590625 177.022059 188.5 176.44761 187.503125 177.435662 C 187.503125 177.435662 186.347656 176.67739 184.489844 177.435662 C 183.198437 177.987132 182.496094 178.446691 181.499219 178.446691 C 181.499219 178.446691 180.457031 178.975184 178.508594 179.434743 C 176.333594 179.940257 174.430469 180.055147 173.501563 180.445772 C 172.1875 180.974265 172.504687 181.433824 171.507812 181.433824 C 171.507812 181.433824 170.465625 181.204044 169.491406 181.433824 C 167.316406 181.962316 166.432812 182.054228 165.503906 182.444853 C 164.189844 182.973346 164.507031 183.432904 164.507031 183.432904 L 164.507031 182.444853 " transform="matrix(0.172414,0,0,0.17,0,0)"/>
<path style="fill:none;stroke-width:1.5;stroke-linecap:butt;stroke-linejoin:miter;stroke:rgb(0%,0%,0%);stroke-opacity:1;stroke-miterlimit:4;" d="M 253.500781 139.430147 C 252.503906 139.430147 252.639844 139.085478 250.510156 138.442096 C 242.784375 136.098346 237.596094 136.948529 233.495312 136.443015 C 232.498437 136.305147 230.9125 135.018382 229.507812 136.443015 C 228.782813 137.155331 228.442969 137.316176 226.494531 138.442096 C 223.390625 140.257353 221.510156 141.429228 220.490625 142.440257 C 219.49375 143.428309 217.998437 144.324449 217.5 147.426471 C 217.024219 150.390625 217.001563 152.34375 216.503125 156.433824 C 216.004687 160.409007 217.5 162.431066 217.5 162.431066 C 217.5 163.442096 217.907813 163.855699 219.49375 165.441176 C 221.079688 167.026654 222.507031 167.440257 223.503906 168.428309 C 223.503906 168.428309 225.497656 168.428309 225.497656 168.428309 C 227.491406 168.428309 229.507812 169.439338 231.501563 169.439338 C 232.498437 169.439338 233.495312 169.439338 234.492188 169.439338 C 235.489062 169.439338 236.508594 169.439338 237.505469 169.439338 C 238.502344 169.439338 239.861719 170.059743 243.509375 167.440257 C 244.642188 166.613051 245.503125 165.441176 247.496875 164.430147 C 248.49375 163.442096 248.969531 163.740809 249.490625 162.431066 C 249.875781 161.511949 249.490625 160.431985 249.490625 159.443934 C 249.490625 159.443934 249.128125 159.352022 249.490625 158.432904 C 250.034375 157.123162 250.510156 156.433824 250.510156 155.445772 C 250.510156 155.445772 250.510156 154.434743 250.510156 154.434743 C 250.510156 154.434743 250.510156 153.446691 251.507031 151.44761 C 251.507031 151.44761 251.960156 149.747243 252.503906 148.4375 C 252.889062 147.518382 252.503906 146.438419 252.503906 145.42739 C 252.503906 145.42739 252.503906 145.42739 252.503906 144.439338 C 252.503906 143.428309 252.503906 143.428309 252.503906 142.440257 C 252.503906 142.440257 252.503906 141.429228 252.503906 141.429228 C 252.503906 141.429228 252.503906 140.441176 252.503906 140.441176 C 252.503906 142.440257 252.005469 144.324449 251.507031 147.426471 C 251.008594 150.390625 250.034375 153.125 249.490625 154.434743 C 248.357812 157.215074 248.49375 158.432904 248.49375 159.443934 C 248.49375 160.431985 248.49375 162.431066 248.49375 164.430147 C 248.49375 165.441176 248.49375 167.440257 248.49375 170.42739 C 248.49375 170.42739 248.49375 172.426471 248.49375 174.448529 C 248.49375 177.435662 248.49375 180.445772 248.49375 183.432904 C 248.49375 185.431985 248.49375 187.431066 248.49375 189.430147 C 248.49375 191.429228 248.992188 193.267463 249.490625 195.42739 C 250.192969 198.368566 250.985938 201.309743 251.507031 204.434743 C 251.824219 206.410846 252.503906 207.444853 252.503906 209.443934 C 252.503906 210.431985 253.20625 211.488971 253.500781 212.431066 C 254.542969 215.877757 256.491406 217.440257 257.510938 219.439338 C 258.507812 221.438419 260.501562 224.448529 261.498437 226.44761 C 262.495313 228.446691 263.741406 229.503676 265.508594 230.445772 C 268.680469 232.14614 267.978125 233.59375 268.499219 234.443934 C 269.677344 236.351103 272.509375 235.431985 276.496875 237.431066 C 278.490625 238.442096 280.507031 238.442096 281.503906 238.442096 C 281.503906 238.442096 282.115625 238.350184 282.500781 237.431066 C 283.044531 236.121324 283.1125 236.351103 283.497656 235.431985 C 284.041406 234.122243 285.491406 231.433824 285.491406 230.445772 C 285.491406 229.434743 285.491406 227.435662 285.491406 227.435662 C 285.491406 224.448529 285.491406 222.426471 285.491406 221.438419 C 285.491406 220.42739 286.646875 217.210478 285.491406 214.430147 C 284.947656 213.120404 284.403906 212.522978 283.497656 211.443015 C 281.209375 208.639706 280.620313 206.36489 279.510156 204.434743 C 277.697656 201.309743 274.797656 197.242647 273.50625 195.42739 C 272.667969 194.301471 271.489844 193.428309 270.492969 192.440257 C 269.496094 191.429228 268.046094 190.73989 267.502344 189.430147 C 267.117188 188.511029 266.686719 186.948529 264.489062 186.443015 C 263.5375 186.213235 263.560156 186.282169 261.498437 185.431985 C 258.575781 184.237132 256.695312 184.191176 255.494531 183.432904 C 252.821094 181.778493 250.510156 182.444853 249.490625 181.433824 C 249.490625 181.433824 248.49375 181.433824 248.49375 181.433824 C 249.490625 180.445772 249.422656 180.261949 253.500781 178.446691 C 258.417188 176.240809 261.657031 176.194853 263.492188 175.436581 C 264.80625 174.88511 264.579687 174.816176 265.508594 174.448529 C 266.8 173.897059 267.502344 173.4375 269.496094 172.426471 L 269.496094 171.438419 L 270.492969 171.438419 " transform="matrix(0.172414,0,0,0.17,0,0)"/>
<path style="fill:none;stroke-width:1.5;stroke-linecap:butt;stroke-linejoin:miter;stroke:rgb(0%,0%,0%);stroke-opacity:1;stroke-miterlimit:4;" d="M 285.491406 90.441176 C 284.494531 91.429228 284.494531 91.429228 284.494531 93.428309 C 284.494531 94.439338 283.497656 96.438419 283.497656 98.4375 C 283.497656 100.436581 282.500781 101.44761 282.500781 103.446691 C 282.500781 104.434743 282.500781 105.445772 282.500781 106.433824 C 282.500781 107.444853 282.500781 107.444853 282.500781 109.443934 C 282.500781 110.431985 282.500781 111.443015 282.500781 111.443015 C 282.500781 112.431066 282.500781 112.431066 282.500781 113.442096 C 282.500781 114.430147 282.500781 115.441176 282.500781 116.429228 C 282.500781 117.440257 282.500781 117.440257 282.500781 118.428309 C 282.500781 119.439338 282.500781 120.42739 282.500781 121.438419 C 282.500781 121.438419 282.274219 122.472426 282.500781 123.4375 C 283.021875 125.620404 283.497656 126.44761 283.497656 127.435662 C 283.497656 127.435662 283.497656 128.446691 283.497656 129.434743 C 283.497656 130.445772 283.497656 131.433824 283.497656 132.444853 C 283.497656 133.432904 283.497656 134.443934 283.497656 134.443934 C 283.497656 135.431985 283.950781 136.121324 284.494531 137.431066 C 284.879687 138.350184 284.494531 139.430147 284.494531 139.430147 C 285.491406 141.429228 285.491406 141.429228 285.491406 142.440257 C 285.491406 143.428309 286.510938 144.439338 286.510938 144.439338 C 286.510938 145.42739 287.190625 147.633272 288.504687 149.448529 C 289.320312 150.574449 290.951562 151.125919 291.495313 152.435662 C 291.880469 153.354779 292.492188 154.434743 293.489062 155.445772 C 293.489062 155.445772 293.489062 156.433824 294.508594 156.433824 C 294.508594 156.433824 295.505469 157.444853 296.502344 158.432904 C 296.502344 158.432904 297.499219 159.443934 298.496094 159.443934 C 298.496094 159.443934 299.492969 160.431985 299.492969 160.431985 C 300.489844 160.431985 302.574219 160.753676 305.496875 161.443015 C 307.671875 161.948529 309.507031 162.431066 309.507031 162.431066 C 310.503906 162.431066 313.494531 163.442096 315.510938 163.442096 C 315.510938 163.442096 316.507812 163.442096 316.507812 163.442096 C 317.504687 163.442096 318.501562 163.442096 318.501562 163.442096 C 319.498437 163.442096 319.566406 163.051471 320.495313 163.442096 C 321.809375 163.970588 322.489062 164.430147 323.508594 164.430147 C 324.505469 164.430147 326.499219 164.430147 327.496094 164.430147 C 328.492969 164.430147 332.503125 165.441176 333.5 165.441176 L 334.496875 165.441176 " transform="matrix(0.172414,0,0,0.17,0,0)"/>
</g>
</svg>
